<svg width="59" height="59" viewBox="0 0 59 59" fill="none" xmlns="http://www.w3.org/2000/svg">
<path d="M59 29.6803C59 13.2883 45.7924 -2.38419e-06 29.5 -2.38419e-06C13.2076 -2.38419e-06 0 13.2883 0 29.6803C0 44.4946 10.7877 56.7734 24.8906 59V38.2597H17.4004V29.6803H24.8906V23.1413C24.8906 15.7027 29.2948 11.5939 36.0332 11.5939C39.2608 11.5939 42.6367 12.1736 42.6367 12.1736V19.4777H38.9168C35.2522 19.4777 34.1094 21.7656 34.1094 24.1127V29.6803H42.291L40.9831 38.2597H34.1094V59C48.2123 56.7734 59 44.4946 59 29.6803Z" fill="white"/>
</svg>
