<svg width="59" height="59" viewBox="0 0 59 59" fill="none" xmlns="http://www.w3.org/2000/svg">
<path fill-rule="evenodd" clip-rule="evenodd" d="M29.5 0C21.4878 0 20.4848 0.0334333 17.3381 0.177C14.1974 0.320567 12.0517 0.8201 10.1755 1.54973C8.20887 2.2892 6.4251 3.44953 4.9501 4.95207C3.44997 6.42536 2.28892 8.20787 1.54777 10.1755C0.822067 12.0517 0.320567 14.1993 0.177 17.3401C0.0354 20.4848 0 21.4858 0 29.5C0 37.5142 0.0334333 38.5152 0.177 41.6619C0.320567 44.8026 0.8201 46.9483 1.54973 48.8245C2.2892 50.7911 3.44953 52.5749 4.95207 54.0499C6.4254 55.55 8.2079 56.711 10.1755 57.4522C12.0517 58.1799 14.1974 58.6794 17.3381 58.823C20.4848 58.9666 21.4878 59 29.5 59C37.5122 59 38.5152 58.9666 41.6619 58.823C44.8026 58.6794 46.9483 58.1799 48.8245 57.4503C50.7911 56.7108 52.5749 55.5505 54.0499 54.0479C55.55 52.5746 56.7111 50.7921 57.4522 48.8245C58.1799 46.9483 58.6794 44.8026 58.823 41.6619C58.9666 38.5152 59 37.5122 59 29.5C59 21.4878 58.9666 20.4848 58.823 17.3381C58.6794 14.1974 58.1799 12.0517 57.4503 10.1755C56.7096 8.20703 55.5486 6.42377 54.0479 4.9501C52.5746 3.44997 50.7921 2.28892 48.8245 1.54777C46.9483 0.822067 44.8007 0.320567 41.6599 0.177C38.5152 0.0354 37.5142 0 29.5 0ZM29.5 5.3159C37.3765 5.3159 38.3107 5.3454 41.4219 5.487C44.2972 5.61877 45.8587 6.09667 46.8991 6.50377C48.2758 7.03673 49.2591 7.67787 50.2916 8.7084C51.3241 9.7409 51.9633 10.7242 52.4962 12.1009C52.9014 13.1413 53.3812 14.7028 53.513 17.5781C53.6546 20.6893 53.6841 21.6235 53.6841 29.5C53.6841 37.3765 53.6546 38.3107 53.513 41.4219C53.3812 44.2972 52.9033 45.8587 52.4962 46.8991C52.0241 48.1805 51.2708 49.3397 50.2916 50.2916C49.3399 51.271 48.1806 52.0243 46.8991 52.4962C45.8587 52.9014 44.2972 53.3812 41.4219 53.513C38.3107 53.6546 37.3785 53.6841 29.5 53.6841C21.6215 53.6841 20.6893 53.6546 17.5781 53.513C14.7028 53.3812 13.1413 52.9033 12.1009 52.4962C10.8195 52.0241 9.66028 51.2708 8.7084 50.2916C7.72935 49.3396 6.97602 48.1804 6.50377 46.8991C6.09863 45.8587 5.61877 44.2972 5.487 41.4219C5.3454 38.3107 5.3159 37.3765 5.3159 29.5C5.3159 21.6235 5.3454 20.6893 5.487 17.5781C5.61877 14.7028 6.09667 13.1413 6.50377 12.1009C7.03673 10.7242 7.67787 9.7409 8.7084 8.7084C9.66015 7.72909 10.8194 6.97572 12.1009 6.50377C13.1413 6.09863 14.7028 5.61877 17.5781 5.487C20.6893 5.3454 21.6235 5.3159 29.5 5.3159Z" fill="white"/>
<path fill-rule="evenodd" clip-rule="evenodd" d="M29.5 39.3432C28.2074 39.3432 26.9275 39.0886 25.7332 38.5939C24.539 38.0992 23.4539 37.3742 22.5399 36.4602C21.6259 35.5462 20.9008 34.461 20.4061 33.2668C19.9115 32.0726 19.6569 30.7926 19.6569 29.5C19.6569 28.2074 19.9115 26.9274 20.4061 25.7332C20.9008 24.539 21.6259 23.4539 22.5399 22.5398C23.4539 21.6258 24.539 20.9008 25.7332 20.4061C26.9275 19.9114 28.2074 19.6568 29.5 19.6568C32.1106 19.6568 34.6143 20.6939 36.4602 22.5398C38.3062 24.3858 39.3432 26.8894 39.3432 29.5C39.3432 32.1106 38.3062 34.6142 36.4602 36.4602C34.6143 38.3061 32.1106 39.3432 29.5 39.3432ZM29.5 14.337C25.4786 14.337 21.6218 15.9345 18.7782 18.7781C15.9346 21.6218 14.337 25.4785 14.337 29.5C14.337 33.5215 15.9346 37.3782 18.7782 40.2219C21.6218 43.0655 25.4786 44.663 29.5 44.663C33.5215 44.663 37.3783 43.0655 40.2219 40.2219C43.0655 37.3782 44.663 33.5215 44.663 29.5C44.663 25.4785 43.0655 21.6218 40.2219 18.7781C37.3783 15.9345 33.5215 14.337 29.5 14.337ZM49.0743 14.0617C49.0743 15.0123 48.6967 15.9239 48.0245 16.5961C47.3523 17.2683 46.4406 17.6459 45.49 17.6459C44.5394 17.6459 43.6278 17.2683 42.9556 16.5961C42.2834 15.9239 41.9058 15.0123 41.9058 14.0617C41.9058 13.1111 42.2834 12.1994 42.9556 11.5272C43.6278 10.855 44.5394 10.4774 45.49 10.4774C46.4406 10.4774 47.3523 10.855 48.0245 11.5272C48.6967 12.1994 49.0743 13.1111 49.0743 14.0617Z" fill="white"/>
</svg>
